<mxfile host="app.diagrams.net" agent="Mozilla/5.0 (Windows NT 10.0; Win64; x64) AppleWebKit/537.36 (KHTML, like Gecko) Chrome/137.0.0.0 Safari/537.36" version="27.2.0">
  <diagram name="Page-1" id="tpelfic_iT1uVbw8rulx">
    <mxGraphModel dx="1042" dy="562" grid="1" gridSize="10" guides="1" tooltips="1" connect="1" arrows="1" fold="1" page="1" pageScale="1" pageWidth="827" pageHeight="1169" math="0" shadow="0">
      <root>
        <mxCell id="0" />
        <mxCell id="1" parent="0" />
        <mxCell id="qSbdwXXxyhUnZe48SNuE-6" value="" style="edgeStyle=orthogonalEdgeStyle;rounded=0;orthogonalLoop=1;jettySize=auto;html=1;" edge="1" parent="1" source="qSbdwXXxyhUnZe48SNuE-2" target="qSbdwXXxyhUnZe48SNuE-3">
          <mxGeometry relative="1" as="geometry" />
        </mxCell>
        <mxCell id="qSbdwXXxyhUnZe48SNuE-12" value="Reads the CSV file" style="edgeLabel;html=1;align=center;verticalAlign=middle;resizable=0;points=[];" vertex="1" connectable="0" parent="qSbdwXXxyhUnZe48SNuE-6">
          <mxGeometry x="-0.1" y="-4" relative="1" as="geometry">
            <mxPoint x="4" as="offset" />
          </mxGeometry>
        </mxCell>
        <mxCell id="qSbdwXXxyhUnZe48SNuE-2" value="&lt;div&gt;CSV File (network_security_logs.csv)&lt;/div&gt;&lt;div&gt;&lt;br&gt;&lt;/div&gt;" style="rounded=1;whiteSpace=wrap;html=1;" vertex="1" parent="1">
          <mxGeometry x="110" y="151" width="180" height="60" as="geometry" />
        </mxCell>
        <mxCell id="qSbdwXXxyhUnZe48SNuE-7" value="" style="edgeStyle=orthogonalEdgeStyle;rounded=0;orthogonalLoop=1;jettySize=auto;html=1;" edge="1" parent="1" source="qSbdwXXxyhUnZe48SNuE-3" target="qSbdwXXxyhUnZe48SNuE-4">
          <mxGeometry relative="1" as="geometry" />
        </mxCell>
        <mxCell id="qSbdwXXxyhUnZe48SNuE-13" value="Transforms data" style="edgeLabel;html=1;align=center;verticalAlign=middle;resizable=0;points=[];" vertex="1" connectable="0" parent="qSbdwXXxyhUnZe48SNuE-7">
          <mxGeometry x="-0.1429" y="-2" relative="1" as="geometry">
            <mxPoint as="offset" />
          </mxGeometry>
        </mxCell>
        <mxCell id="qSbdwXXxyhUnZe48SNuE-3" value="&lt;div&gt;&lt;div&gt;[INPUT] file plugin&lt;/div&gt;&lt;/div&gt;" style="rounded=1;whiteSpace=wrap;html=1;" vertex="1" parent="1">
          <mxGeometry x="110" y="271" width="180" height="60" as="geometry" />
        </mxCell>
        <mxCell id="qSbdwXXxyhUnZe48SNuE-8" value="" style="edgeStyle=orthogonalEdgeStyle;rounded=0;orthogonalLoop=1;jettySize=auto;html=1;" edge="1" parent="1" source="qSbdwXXxyhUnZe48SNuE-4" target="qSbdwXXxyhUnZe48SNuE-5">
          <mxGeometry relative="1" as="geometry" />
        </mxCell>
        <mxCell id="qSbdwXXxyhUnZe48SNuE-14" value="Sends the final structured JSON" style="edgeLabel;html=1;align=center;verticalAlign=middle;resizable=0;points=[];" vertex="1" connectable="0" parent="qSbdwXXxyhUnZe48SNuE-8">
          <mxGeometry x="-0.16" y="-3" relative="1" as="geometry">
            <mxPoint x="3" as="offset" />
          </mxGeometry>
        </mxCell>
        <mxCell id="qSbdwXXxyhUnZe48SNuE-4" value="&lt;div&gt;[FILTER]&lt;/div&gt;&lt;div style=&quot;text-align: left;&quot;&gt;&amp;nbsp; &amp;nbsp;csv =&amp;gt; parse into fields&lt;/div&gt;&lt;div style=&quot;text-align: left;&quot;&gt;&amp;nbsp; &amp;nbsp;mutate =&amp;gt; convert&lt;/div&gt;&lt;div style=&quot;text-align: left;&quot;&gt;&amp;nbsp; &amp;nbsp;date =&amp;gt; normalize timestamp&lt;/div&gt;" style="rounded=1;whiteSpace=wrap;html=1;" vertex="1" parent="1">
          <mxGeometry x="110" y="380" width="180" height="90" as="geometry" />
        </mxCell>
        <mxCell id="qSbdwXXxyhUnZe48SNuE-5" value="&lt;div&gt;[OUTPUT]&lt;/div&gt;&lt;div style=&quot;text-align: left;&quot;&gt;&amp;nbsp; elasticsearch =&amp;gt; index as JSON&lt;/div&gt;&lt;div style=&quot;text-align: left;&quot;&gt;&amp;nbsp; stdout =&amp;gt; debug output&lt;/div&gt;" style="rounded=1;whiteSpace=wrap;html=1;" vertex="1" parent="1">
          <mxGeometry x="110" y="520" width="180" height="80" as="geometry" />
        </mxCell>
      </root>
    </mxGraphModel>
  </diagram>
</mxfile>
